<?xml version="1.0" encoding="utf-8"?>
<!-- Generator: Adobe Illustrator 19.0.0, SVG Export Plug-In . SVG Version: 6.00 Build 0)  -->
<svg version="1.1" id="Layer_1" xmlns="http://www.w3.org/2000/svg" xmlns:xlink="http://www.w3.org/1999/xlink" x="0px" y="0px"
	 viewBox="0 0 1026.3 691.1" style="enable-background:new 0 0 1026.3 691.1;" xml:space="preserve">
<style type="text/css">
	.st0{fill:#FFFFFF;}
</style>
<g>
	<g>
		<g>
			<polygon id="XMLID_108_" points="28.9,665 28.9,539.9 39,526.9 103.5,510.1 120.4,523.2 120.4,647.7 110.4,660.8 45.8,678 			"/>
			<path id="XMLID_105_" d="M106.9,523.2v124.5L42.4,665v-125L106.9,523.2 M100.1,497.1l-64.5,16.7l-20.2,26.1v125l34,26.1
				l64.5-17.3l20-26.1V523.2L100.1,497.1L100.1,497.1z"/>
		</g>
	</g>
	<g>
		<polygon id="XMLID_103_" points="129.1,636.6 129.1,400.1 30.4,426 13.5,412.9 13.5,358.7 23.6,345.7 139,315.5 139.1,315.4 
			203.6,298.1 220.6,311.1 220.6,620.3 210.4,633.4 145.9,649.7 		"/>
		<path id="XMLID_92_" d="M207.1,311.1v309.2l-64.5,16.3v-254L27,412.9v-54.2l115.6-30.3v-0.1L207.1,311.1 M200.1,285l-64.5,17.3
			l-0.1,0.1L20.2,332.6L0,358.8v54.2L33.8,439l81.8-21.4v219l33.6,26.2l64.5-16.3l20.4-26.2V311.1L200.1,285L200.1,285z"/>
	</g>
	<g>
		<path id="XMLID_100_" d="M333.1,582.9V524l10-13l46.7-12.4l-0.8-0.6V259.5l10-13l64.5-17.3l17,13v26.5l51.6-54.8l6.5-3.8
			l84.8-21.7l16.8,14.4l-2.1,20.8l-3.6,7.9l-13,13.8v268.5l-10,13.1L350.1,596L333.1,582.9z M480.6,474.5l49.5-13.1v-119l-49.5,52.5
			V474.5z"/>
		<path id="XMLID_95_" d="M626.8,201.4L626.8,201.4 M626.8,201.4l-2.1,20.8l-16.7,17.7v273.8l-261.4,69.2V524l196.9-52.2V308.4
			l-76.5,81.1v91.7l-64.5,16.7V259.5l64.5-17.3v60.5l75-79.6L626.8,201.4 M626.8,174.4L626.8,174.4l0,6.6l-6.7-5.8L535.4,197
			l-13,7.6L490,239.1l-29.9-22.9l-64.5,17.3l-20,26.1v228.9l-35.8,9.5L319.6,524v58.9l33.9,26.1L615,539.8l20.1-26.1V250.6l9.3-9.9
			l7.2-15.8l2.1-20.8L626.8,181L626.8,174.4L626.8,174.4z M494.1,400.2l22.5-23.8V451l-22.5,6V400.2L494.1,400.2z"/>
	</g>
	<g>
		<polygon id="XMLID_89_" points="191.5,621 191.5,562.1 201.5,549 319,517 319,349.8 279.4,360.3 262.4,347.3 262.4,293.1 
			272.5,280.1 393.6,248.6 410.5,261.6 410.5,493 467.6,478.3 484.5,491.3 484.5,550.3 474.5,563.3 208.5,634.1 		"/>
		<path id="XMLID_86_" d="M397,261.6v248.8l74-19.1v58.9L205,621v-58.9l127.4-34.8V332.2l-56.6,15.1v-54.2L397,261.6L397,261.6
			 M390.2,235.5L269.1,267l-20.2,26.1v54.2l34,26.1l22.6-6v139.3L197.9,536l-19.9,26V621l33.9,26.1l266-70.7l20.1-26.1v-58.9
			l-33.8-26.1L424,475.6v-214L390.2,235.5L390.2,235.5z"/>
	</g>
	<g>
		<polygon id="XMLID_84_" points="203.7,465 203.7,308.4 213.7,295.4 278.2,278.1 295.2,291.1 295.2,448.2 285.1,461.3 220.6,478 		
			"/>
		<path id="XMLID_81_" d="M281.7,291.1v157.1L217.2,465V308.4L281.7,291.1 M274.7,265l-64.5,17.3l-20,26.1V465l33.8,26.1l64.5-16.7
			l20.2-26.1V291.1L274.7,265L274.7,265z"/>
	</g>
	<g>
		<polygon id="XMLID_79_" points="592.9,514.3 593.1,275.6 552.7,287.2 535.5,274.3 535.5,221.4 545.5,208.3 667.4,175.7 
			684.4,188.7 684.4,497 674.4,510.1 609.9,527.3 		"/>
		<path id="XMLID_76_" d="M670.9,188.7V497l-64.5,17.3l0.2-256.6L549,274.3v-52.9L670.9,188.7 M663.9,162.6L542,195.3l-20,26.1v52.9
			l34.5,26l23.2-6.6l-0.2,220.7l34,26.1l64.5-17.3l20-26.1V188.7L663.9,162.6L663.9,162.6z"/>
	</g>
	<g>
		<polygon id="XMLID_74_" points="702.7,484.3 702.7,249.8 637,267 620.1,253.9 620.1,199.3 623.9,190 760.1,48.1 766.4,44.4 
			869.2,17 882.4,39.3 778.4,147.7 794.2,160 794.2,467.1 784.2,480.1 719.7,497.4 		"/>
		<path id="XMLID_71_" d="M872.7,30L737.3,171l43.3-11v307l-64.5,17.3V232.2l-9,2.4l-73.5,19.3v-54.6L769.9,57.4L872.7,30
			 M865.7,3.9L762.9,31.3l-12.5,7.4L614.1,180.6l-7.5,18.7v54.6l33.8,26.1l48.7-12.8v217.1l34,26.1l64.5-17.3l20-26.1V160l-12.8-10
			l97.3-101.4L865.7,3.9L865.7,3.9z"/>
	</g>
	<g>
		<polygon id="XMLID_69_" points="810.8,457.1 811,220.4 770.6,232 753.4,219 753.4,163.9 763.4,150.8 885.3,118.2 902.3,131.2 
			902.3,439.9 892.3,452.9 827.8,470.2 		"/>
		<path id="XMLID_66_" d="M888.8,131.2v308.7l-64.5,17.3l0.2-254.7L766.9,219v-55.2L888.8,131.2 M881.8,105.1l-121.9,32.7l-20,26.1
			V219l34.5,26l23.2-6.6l-0.2,218.8l34,26.1l64.5-17.3l20-26.1V131.2L881.8,105.1L881.8,105.1z"/>
	</g>
	<g>
		<polygon id="XMLID_64_" points="707.5,475.9 921.3,250.1 921.3,191.1 884.3,201.6 867.1,188.6 867.1,133.4 877.2,120.4 
			995.8,88.7 1012.8,101.8 1012.8,410.1 1002.8,423.1 938.3,440.4 921.3,427.4 921.3,376.5 838.7,464.9 832.3,468.8 720.8,498.3 		
			"/>
		<path id="XMLID_61_" d="M999.3,101.8v308.4l-64.5,17.3v-85.1L828.9,455.7l-111.5,29.5l217.4-229.7v-82.2l-54.2,15.3v-55.2
			L999.3,101.8 M992.4,75.7l-118.7,31.7l-20,26.1v55.2l34.3,26l19.8-5.6v35.8L697.7,466.7l26.5,44.7l111.5-29.5l12.8-7.7l59.2-63.4
			v16.6l34,26.1l64.5-17.3l20-26.1V101.8L992.4,75.7L992.4,75.7z"/>
	</g>
</g>
<g>
	<g>
		<g>
			<path id="XMLID_59_" class="st0" d="M26.4,651.5c-1.2,0-2.4-0.4-3.3-1.1c-1.4-1-2.2-2.7-2.2-4.4v-125c0-2.5,1.7-4.7,4.1-5.3
				l64.5-16.7c0.5-0.1,0.9-0.2,1.4-0.2c1.2,0,2.4,0.4,3.4,1.2c1.3,1,2.1,2.6,2.1,4.3v124.5c0,2.5-1.7,4.7-4.1,5.3l-64.5,17.3
				C27.3,651.4,26.8,651.5,26.4,651.5z"/>
			<path id="XMLID_56_" d="M90.9,504.2v124.5L26.4,646v-125L90.9,504.2 M90.9,493.2c-0.9,0-1.8,0.1-2.8,0.4l-64.5,16.7
				c-4.9,1.3-8.2,5.6-8.2,10.6v125c0,3.4,1.6,6.6,4.3,8.7c1.9,1.5,4.3,2.3,6.7,2.3c1,0,1.9-0.1,2.8-0.4l64.5-17.3
				c4.8-1.3,8.2-5.6,8.2-10.6V504.2c0-3.4-1.6-6.6-4.3-8.7C95.7,494,93.3,493.2,90.9,493.2L90.9,493.2z"/>
		</g>
	</g>
	<g>
		<path id="XMLID_54_" class="st0" d="M126.6,623.1c-1.2,0-2.4-0.4-3.4-1.2c-1.3-1-2.1-2.6-2.1-4.3V370.8L12.4,399.2
			c-0.5,0.1-0.9,0.2-1.4,0.2c-1.2,0-2.4-0.4-3.4-1.1c-1.3-1-2.1-2.6-2.1-4.4v-54.2c0-2.5,1.7-4.7,4.1-5.3l114.7-30
			c0.3-0.1,0.6-0.2,0.8-0.3l64.5-17.3c0.5-0.1,0.9-0.2,1.4-0.2c1.2,0,2.4,0.4,3.3,1.1c1.4,1,2.2,2.7,2.2,4.4v309.2
			c0,2.5-1.7,4.7-4.2,5.3L128,622.9C127.5,623.1,127.1,623.1,126.6,623.1z"/>
		<path id="XMLID_43_" d="M191.1,292.1v309.2l-64.5,16.3v-254L11,393.9v-54.2l115.6-30.3v-0.1L191.1,292.1 M191.1,281.1
			c-1,0-1.9,0.1-2.8,0.4l-64.5,17.3c-0.4,0.1-0.8,0.2-1.2,0.4L8.2,329.1c-4.8,1.3-8.2,5.6-8.2,10.6v54.2c0,3.4,1.6,6.6,4.3,8.7
			c1.9,1.5,4.3,2.3,6.7,2.3c0.9,0,1.9-0.1,2.8-0.4l101.8-26.7v239.7c0,3.4,1.6,6.6,4.2,8.7c2,1.5,4.3,2.3,6.8,2.3
			c0.9,0,1.8-0.1,2.7-0.3l64.5-16.3c4.9-1.2,8.3-5.6,8.3-10.7V292.1c0-3.4-1.6-6.6-4.3-8.7C195.9,281.9,193.5,281.1,191.1,281.1
			L191.1,281.1z"/>
	</g>
	<g>
		<path id="XMLID_51_" class="st0" d="M330.6,569.4c-1.2,0-2.4-0.4-3.4-1.1c-1.4-1-2.1-2.7-2.1-4.4V505c0-2.5,1.7-4.7,4.1-5.3
			l57.4-15.2c0,0-0.1,0-0.1,0c-1.2,0-2.4-0.4-3.4-1.2c-1.3-1-2.1-2.6-2.1-4.3V240.5c0-2.5,1.7-4.7,4.1-5.3l64.5-17.3
			c0.5-0.1,0.9-0.2,1.4-0.2c1.2,0,2.4,0.4,3.3,1.1c1.4,1,2.2,2.7,2.2,4.4v46.6l65.5-69.5c0.7-0.8,1.6-1.3,2.6-1.6l84.8-21.7
			c0.5-0.1,0.9-0.2,1.4-0.2c1.3,0,2.6,0.5,3.6,1.3c1.4,1.2,2.1,2.9,1.9,4.7l-2.1,20.8c-0.1,1.2-0.6,2.3-1.5,3.2l-15.2,16.1v271.6
			c0,2.5-1.7,4.7-4.1,5.3l-261.4,69.2C331.6,569.4,331.1,569.4,330.6,569.4z M456.6,462.2c0,1.7-0.7,3.2-1.9,4.2l67.4-17.9V303.2
			l-65.5,69.5V462.2z"/>
		<path id="XMLID_46_" d="M610.8,182.4L610.8,182.4 M610.8,182.4l-2.1,20.8l-16.7,17.7v273.8l-261.4,69.2V505l196.9-52.2V289.4
			l-76.5,81.1v91.7l-64.5,16.7V240.5l64.5-17.3v60.5l75-79.6L610.8,182.4 M610.8,171.4c-0.1,0-0.3,0-0.4,0c-0.9,0-1.7,0.2-2.5,0.4
			l-84.5,21.6c-2,0.5-3.8,1.6-5.3,3.1l-56,59.4v-32.8c0-3.4-1.6-6.6-4.3-8.7c-1.9-1.5-4.3-2.3-6.7-2.3c-1,0-1.9,0.1-2.8,0.4
			l-64.5,17.3c-4.8,1.3-8.2,5.6-8.2,10.6v238.4c0,0.9,0.1,1.8,0.3,2.7l-48.1,12.7c-4.8,1.3-8.2,5.6-8.2,10.6v58.9
			c0,3.4,1.6,6.6,4.3,8.7c1.9,1.5,4.3,2.3,6.7,2.3c0.9,0,1.9-0.1,2.8-0.4l261.4-69.2c4.8-1.3,8.2-5.6,8.2-10.6V225.3l13.7-14.5
			c1.7-1.8,2.7-4,2.9-6.4l2.1-20.5c0.1-0.5,0.1-0.9,0.1-1.4c0-6-4.8-10.9-10.8-11C611,171.4,610.9,171.4,610.8,171.4L610.8,171.4z
			 M462.1,374.9l54.5-57.8v127.2l-54.5,14.4V374.9L462.1,374.9z"/>
	</g>
	<g>
		<path id="XMLID_40_" class="st0" d="M189,607.5c-1.2,0-2.4-0.4-3.4-1.1c-1.4-1-2.1-2.7-2.1-4.4v-58.9c0-2.5,1.7-4.7,4.1-5.3
			L311,504.1V320.4l-49.6,13.3c-0.5,0.1-0.9,0.2-1.4,0.2c-1.2,0-2.4-0.4-3.4-1.1c-1.4-1-2.1-2.7-2.1-4.4v-54.2
			c0-2.5,1.7-4.7,4.1-5.3l121.1-31.5c0.5-0.1,0.9-0.2,1.4-0.2c1.2,0,2.4,0.4,3.4,1.1c1.3,1,2.1,2.6,2.1,4.4v241.7l67.2-17.3
			c0.5-0.1,0.9-0.2,1.4-0.2c1.2,0,2.4,0.4,3.4,1.2c1.3,1,2.1,2.6,2.1,4.3v58.9c0,2.5-1.7,4.7-4.1,5.3l-266,70.7
			C190,607.4,189.5,607.5,189,607.5z"/>
		<path id="XMLID_37_" d="M381,242.6v248.8l74-19.1v58.9L189,602v-58.9l127.4-34.8V313.2l-56.6,15.1v-54.2L381,242.6L381,242.6
			 M381,231.6c-0.9,0-1.9,0.1-2.8,0.4l-121.1,31.5c-4.8,1.3-8.2,5.6-8.2,10.6v54.2c0,3.4,1.6,6.6,4.3,8.7c1.9,1.5,4.3,2.3,6.7,2.3
			c0.9,0,1.9-0.1,2.8-0.4l42.7-11.4v172.4l-119.3,32.5c-4.8,1.3-8.1,5.7-8.1,10.6V602c0,3.4,1.6,6.6,4.3,8.7
			c1.9,1.5,4.3,2.3,6.7,2.3c0.9,0,1.9-0.1,2.8-0.4l266-70.7c4.8-1.3,8.2-5.6,8.2-10.6v-58.9c0-3.4-1.6-6.6-4.3-8.7
			c-1.9-1.5-4.3-2.3-6.7-2.3c-0.9,0-1.8,0.1-2.7,0.3L392,477.3V242.6c0-3.4-1.6-6.6-4.3-8.7C385.7,232.4,383.4,231.6,381,231.6
			L381,231.6z"/>
	</g>
	<g>
		<path id="XMLID_35_" class="st0" d="M201.2,451.5c-1.2,0-2.4-0.4-3.4-1.2c-1.3-1-2.1-2.6-2.1-4.3V289.4c0-2.5,1.7-4.7,4.1-5.3
			l64.5-17.3c0.5-0.1,0.9-0.2,1.4-0.2c1.2,0,2.4,0.4,3.3,1.1c1.4,1,2.2,2.7,2.2,4.4v157.1c0,2.5-1.7,4.7-4.1,5.3l-64.5,16.7
			C202.1,451.4,201.7,451.5,201.2,451.5z"/>
		<path id="XMLID_32_" d="M265.7,272.1v157.1L201.2,446V289.4L265.7,272.1 M265.7,261.1c-1,0-1.9,0.1-2.8,0.4l-64.5,17.3
			c-4.8,1.3-8.2,5.6-8.2,10.6V446c0,3.4,1.6,6.6,4.3,8.7c1.9,1.5,4.3,2.3,6.7,2.3c0.9,0,1.8-0.1,2.8-0.4l64.5-16.7
			c4.9-1.3,8.2-5.6,8.2-10.6V272.1c0-3.4-1.6-6.6-4.3-8.7C270.5,261.9,268.1,261.1,265.7,261.1L265.7,261.1z"/>
	</g>
	<g>
		<path id="XMLID_30_" class="st0" d="M590.4,500.8c-1.2,0-2.4-0.4-3.4-1.1c-1.4-1-2.2-2.7-2.1-4.4l0.2-249.3l-50.6,14.5
			c-0.5,0.1-1,0.2-1.5,0.2c-1.2,0-2.3-0.4-3.3-1.1c-1.4-1-2.2-2.7-2.2-4.4v-52.9c0-2.5,1.7-4.7,4.1-5.3l121.9-32.7
			c0.5-0.1,0.9-0.2,1.4-0.2c1.2,0,2.4,0.4,3.3,1.1c1.4,1,2.2,2.7,2.2,4.4V478c0,2.5-1.7,4.7-4.1,5.3l-64.5,17.3
			C591.4,500.7,590.9,500.8,590.4,500.8z"/>
		<path id="XMLID_27_" d="M654.9,169.7V478l-64.5,17.3l0.2-256.6L533,255.3v-52.9L654.9,169.7 M654.9,158.7c-1,0-1.9,0.1-2.8,0.4
			l-121.9,32.7c-4.8,1.3-8.2,5.6-8.2,10.6v52.9c0,3.5,1.6,6.7,4.4,8.8c1.9,1.5,4.3,2.2,6.6,2.2c1,0,2-0.1,3-0.4l43.6-12.5l-0.2,242
			c0,3.4,1.6,6.6,4.3,8.7c1.9,1.5,4.3,2.3,6.7,2.3c1,0,1.9-0.1,2.8-0.4l64.5-17.3c4.8-1.3,8.2-5.6,8.2-10.6V169.7
			c0-3.4-1.6-6.6-4.3-8.7C659.7,159.5,657.3,158.7,654.9,158.7L654.9,158.7z"/>
	</g>
	<g>
		<path id="XMLID_25_" class="st0" d="M700.2,470.8c-1.2,0-2.4-0.4-3.3-1.1c-1.4-1-2.2-2.7-2.2-4.4V220.4l-2.1,0.6L619,240.2
			c-0.5,0.1-0.9,0.2-1.4,0.2c-1.2,0-2.4-0.4-3.4-1.1c-1.4-1-2.1-2.6-2.1-4.4v-54.6c0-1.4,0.5-2.8,1.5-3.8L749.9,34.6
			c0.7-0.7,1.6-1.2,2.5-1.5L855.3,5.7c0.5-0.1,0.9-0.2,1.4-0.2c1.9,0,3.7,1,4.7,2.7c1.3,2.1,0.9,4.8-0.8,6.6L738.6,142l24.7-6.3
			c0.4-0.1,0.9-0.2,1.4-0.2c1.2,0,2.4,0.4,3.4,1.2c1.3,1,2.1,2.6,2.1,4.3v307c0,2.5-1.7,4.7-4.1,5.3l-64.5,17.3
			C701.1,470.8,700.6,470.8,700.2,470.8z"/>
		<path id="XMLID_22_" d="M856.7,11L721.3,152l43.3-11v307l-64.5,17.3V213.2l-9,2.4l-73.5,19.3v-54.6L753.9,38.4L856.7,11 M856.7,0
			c-0.9,0-1.9,0.1-2.8,0.4L751,27.8c-1.9,0.5-3.7,1.6-5.1,3L609.7,172.7c-2,2-3.1,4.8-3.1,7.6v54.6c0,3.4,1.6,6.6,4.3,8.7
			c1.9,1.5,4.3,2.3,6.7,2.3c0.9,0,1.9-0.1,2.8-0.4l68.8-18v237.8c0,3.4,1.6,6.6,4.3,8.7c1.9,1.5,4.3,2.3,6.7,2.3
			c1,0,1.9-0.1,2.8-0.4l64.5-17.3c4.8-1.3,8.2-5.6,8.2-10.6V141c0-3.4-1.6-6.6-4.2-8.7c-2-1.5-4.3-2.3-6.8-2.3
			c-0.9,0-1.8,0.1-2.7,0.3l-6.1,1.5L864.6,18.6c3.4-3.6,4-9,1.5-13.2C864.1,2,860.5,0,856.7,0L856.7,0z"/>
	</g>
	<g>
		<path id="XMLID_20_" class="st0" d="M808.3,443.7c-1.2,0-2.4-0.4-3.4-1.1c-1.4-1-2.2-2.7-2.1-4.4l0.2-247.4l-50.6,14.5
			c-0.5,0.1-1,0.2-1.5,0.2c-1.2,0-2.3-0.4-3.3-1.1c-1.4-1-2.2-2.7-2.2-4.4v-55.2c0-2.5,1.7-4.7,4.1-5.3l121.9-32.7
			c0.5-0.1,0.9-0.2,1.4-0.2c1.2,0,2.4,0.4,3.3,1.1c1.4,1,2.2,2.7,2.2,4.4v308.7c0,2.5-1.7,4.7-4.1,5.3l-64.5,17.3
			C809.2,443.6,808.8,443.7,808.3,443.7z"/>
		<path id="XMLID_17_" d="M872.8,112.2v308.7l-64.5,17.3l0.2-254.7L750.9,200v-55.2L872.8,112.2 M872.8,101.2c-1,0-1.9,0.1-2.8,0.4
			L748,134.3c-4.8,1.3-8.2,5.6-8.2,10.6V200c0,3.5,1.6,6.7,4.4,8.8c1.9,1.5,4.3,2.2,6.6,2.2c1,0,2-0.1,3-0.4l43.6-12.5l-0.2,240.1
			c0,3.4,1.6,6.6,4.3,8.7c1.9,1.5,4.3,2.3,6.7,2.3c1,0,1.9-0.1,2.8-0.4l64.5-17.3c4.8-1.3,8.2-5.6,8.2-10.6V112.2
			c0-3.4-1.6-6.6-4.3-8.7C877.5,102,875.2,101.2,872.8,101.2L872.8,101.2z"/>
	</g>
	<g>
		<path id="XMLID_15_" class="st0" d="M701.4,471.7c-1.9,0-3.7-1-4.7-2.7c-1.3-2.1-1-4.8,0.7-6.6l215.9-228.1v-72.8l-47.2,13.3
			c-0.5,0.1-1,0.2-1.5,0.2c-1.2,0-2.4-0.4-3.3-1.1c-1.4-1-2.2-2.7-2.2-4.4v-55.2c0-2.5,1.7-4.7,4.1-5.3l118.7-31.7
			c0.5-0.1,0.9-0.2,1.4-0.2c1.2,0,2.4,0.4,3.4,1.1c1.4,1,2.1,2.7,2.1,4.4v308.4c0,2.5-1.7,4.7-4.1,5.3l-64.5,17.3
			c-0.5,0.1-0.9,0.2-1.4,0.2c-1.2,0-2.4-0.4-3.3-1.1c-1.4-1-2.2-2.7-2.2-4.4v-71.1l-96.4,103.2c-0.7,0.8-1.6,1.3-2.6,1.6
			l-111.5,29.5C702.3,471.7,701.8,471.7,701.4,471.7z"/>
		<path id="XMLID_12_" d="M983.3,82.8v308.4l-64.5,17.3v-85.1L812.9,436.7l-111.5,29.5l217.4-229.7v-82.2l-54.2,15.3v-55.2
			L983.3,82.8 M983.3,71.8c-0.9,0-1.9,0.1-2.8,0.4l-118.7,31.7c-4.8,1.3-8.2,5.6-8.2,10.6v55.2c0,3.4,1.6,6.7,4.4,8.8
			c1.9,1.5,4.3,2.2,6.6,2.2c1,0,2-0.1,3-0.4l40.2-11.3v63.3L693.4,458.7c-3.4,3.6-4,8.9-1.5,13.2c2,3.4,5.6,5.4,9.5,5.4
			c0.9,0,1.9-0.1,2.8-0.4l111.5-29.5c2-0.5,3.8-1.6,5.2-3.1l86.9-93v57.2c0,3.4,1.6,6.6,4.3,8.7c1.9,1.5,4.3,2.3,6.7,2.3
			c1,0,1.9-0.1,2.8-0.4l64.5-17.3c4.8-1.3,8.2-5.6,8.2-10.6V82.8c0-3.4-1.6-6.6-4.3-8.7C988.1,72.5,985.7,71.8,983.3,71.8
			L983.3,71.8z"/>
	</g>
</g>
</svg>
